# xmcd
#
# Track frame offsets:
#	150
#	13806
#	36367
#	64877
#	82310
#	94497
#	110943
#
# Disc length: 2772 seconds
#
# Revision: 0
# Processed by: cddbd v1.5.2PL0 Copyright (c) Steve Scherf et al.
# Submitted via: EasyCDDAExtractor 2010.6.0.0
#
DISCID=690ad207
DTITLE=Agnes - Dance Love Pop (The Love Love Love Edition)
DYEAR=2009
DGENRE=Dance
TTITLE0=Love Love Love
TTITLE1=Love Love Love (Extended Version)
TTITLE2=On And On (Anotha Ding-Ah-Beh-An Version)
TTITLE3=On And On (The Void Remix)
TTITLE4=On And On (Acoustic Version)
TTITLE5=Release Me (Pio Padio Remix)
TTITLE6=Release Me (Acoustic Version, P3 Live Session)
EXTD=
EXTT0=
EXTT1=
EXTT2=
EXTT3=
EXTT4=
EXTT5=
EXTT6=
PLAYORDER=
